HIERARCHY
ROOT Hips
{
	OFFSET 0 0 0
	CHANNELS 6 Xposition Yposition Zposition Yrotation Xrotation Zrotation
	JOINT Spine
	{
		OFFSET -0 8.27663 -2.63818
		CHANNELS 3 Yrotation Xrotation Zrotation
		JOINT Spine1
		{
			OFFSET -0 10.2785 0
			CHANNELS 3 Yrotation Xrotation Zrotation
			JOINT Spine2
			{
				OFFSET -0 10.2785 0
				CHANNELS 3 Yrotation Xrotation Zrotation
				JOINT Spine3
				{
					OFFSET -0 10.2785 0
					CHANNELS 3 Yrotation Xrotation Zrotation
					JOINT Neck
					{
						OFFSET -0 12.5595 3.63818
						CHANNELS 3 Yrotation Xrotation Zrotation
						JOINT Head
						{
							OFFSET -0 10.3458 0
							CHANNELS 3 Yrotation Xrotation Zrotation
							End Site
							{
								OFFSET -0 15 0
							}
						}
					}
					JOINT LeftShoulder
					{
						OFFSET 1.7243 3.23436 3.4486
						CHANNELS 3 Yrotation Xrotation Zrotation
						JOINT LeftArm
						{
							OFFSET 14.9201 0 0
							CHANNELS 3 Yrotation Xrotation Zrotation
							JOINT LeftForeArm
							{
								OFFSET 26.9308 0 0
								CHANNELS 3 Yrotation Xrotation Zrotation
								JOINT LeftHand
								{
									OFFSET 23.3929 0 0
									CHANNELS 3 Yrotation Xrotation Zrotation
									End Site
									{
										OFFSET 15 0 0
									}
								}
							}
						}
					}
					JOINT RightShoulder
					{
						OFFSET -1.7243 3.23436 3.4486
						CHANNELS 3 Yrotation Xrotation Zrotation
						JOINT RightArm
						{
							OFFSET -14.9201 0 0
							CHANNELS 3 Yrotation Xrotation Zrotation
							JOINT RightForeArm
							{
								OFFSET -26.9308 0 0
								CHANNELS 3 Yrotation Xrotation Zrotation
								JOINT RightHand
								{
									OFFSET -23.3929 0 0
									CHANNELS 3 Yrotation Xrotation Zrotation
									End Site
									{
										OFFSET -15 0 0
									}
								}
							}
						}
					}
				}
			}
		}
	}
	JOINT LeftUpLeg
	{
		OFFSET 10.3458 -3.4486 2
		CHANNELS 3 Yrotation Xrotation Zrotation
		JOINT LeftLeg
		{
			OFFSET -0 -40.2665 2.41402
			CHANNELS 3 Yrotation Xrotation Zrotation
			JOINT LeftFoot
			{
				OFFSET -0 -38.6848 -2.41402
				CHANNELS 3 Yrotation Xrotation Zrotation
				JOINT LeftToeBase
				{
					OFFSET -0 -6.65752 15.5187
					CHANNELS 3 Yrotation Xrotation Zrotation
					End Site
					{
						OFFSET -0 0 5
					}
				}
			}
		}
	}
	JOINT RightUpLeg
	{
		OFFSET -10.3458 -3.4486 2
		CHANNELS 3 Yrotation Xrotation Zrotation
		JOINT RightLeg
		{
			OFFSET -0 -40.2665 2.41402
			CHANNELS 3 Yrotation Xrotation Zrotation
			JOINT RightFoot
			{
				OFFSET -0 -38.6848 -2.41402
				CHANNELS 3 Yrotation Xrotation Zrotation
				JOINT RightToeBase
				{
					OFFSET -0 -6.65752 15.5187
					CHANNELS 3 Yrotation Xrotation Zrotation
					End Site
					{
						OFFSET -0 0 5
					}
				}
			}
		}
	}
}
MOTION
Frames: 15
Frame Time: 0.00833333
0 91.946448 0 0 0 0 0 0 0 0 0 0 0 0 0 0 0 0 0 0 0 0 0 0 0 0 0 0 0 0 0 0 0 0 0 0 0 0 0 0 0 0 0 0 0 0 0 0 0 0 0 0 0 0 0 0 0 0 0 0 0 0 0 0 0 0 0 0 0 0 0 0
-225.127783 91.578436 120.012659 -3.141109 -3.307477 0.052603 0.212292 0.364519 -0.277308 0.185620 0.315841 -0.163128 0.099417 0.294422 -0.049691 0.077946 0.323547 -0.012506 2.709135 -2.890073 -1.891410 1.022221 -3.155730 1.302753 9.120178 2.348545 -6.945424 -30.303261 7.990081 -37.992892 -17.312820 6.261207 6.492652 14.802489 -6.818486 -7.567399 -7.554207 4.237456 9.497897 32.069817 7.868775 31.125629 12.263264 -2.107990 -4.879129 -19.554492 3.321514 8.495627 6.792026 8.960989 0.425118 0.000000 1.336568 0.000000 9.087903 -1.387610 1.331384 0.000000 -8.331749 0.000000 -10.218537 6.973958 -1.169108 0.000000 1.850805 0.000000 -12.050705 -1.223337 0.053195 0.000000 -6.733806 0.000000
-225.128516 91.577087 120.014807 -3.133045 -3.306362 0.032765 0.207226 0.357220 -0.256068 0.179779 0.322100 -0.155215 0.100290 0.322647 -0.058346 0.078790 0.301993 -0.023098 2.663583 -2.849471 -1.929302 0.993837 -3.239556 1.412351 9.128209 2.375976 -6.954993 -30.328533 8.008940 -37.956169 -17.328906 6.316796 6.515092 14.831888 -6.920670 -7.647871 -7.552892 4.230590 9.494767 32.076758 7.860079 31.130956 12.253953 -2.118244 -4.882197 -19.557542 3.311908 8.486726 6.761241 8.970062 0.445299 0.000000 1.314177 0.000000 9.114792 -1.365679 1.272217 0.000000 -8.391412 0.000000 -10.196505 6.968073 -1.147976 0.000000 1.868019 0.000000 -12.084844 -1.224585 0.052000 0.000000 -6.763922 0.000000
-225.126367 91.580750 120.020618 -3.117666 -3.310130 0.058692 0.203866 0.358894 -0.277361 0.176489 0.341453 -0.173158 0.093212 0.304588 -0.065260 0.069711 0.294712 -0.017315 2.705976 -2.908222 -1.851055 1.022704 -3.156316 1.290609 9.168809 2.426187 -6.967946 -30.352951 7.946293 -37.897439 -17.306437 6.319257 6.480150 14.830980 -6.851137 -7.588733 -7.533615 4.219161 9.522751 32.042413 7.854301 31.108458 12.255826 -2.105924 -4.840165 -19.532891 3.312801 8.438629 6.801100 8.965060 0.416588 0.000000 1.341312 0.000000 9.059907 -1.400783 1.412333 0.000000 -8.268024 0.000000 -10.266786 6.972740 -1.187256 0.000000 1.868359 0.000000 -12.031964 -1.218464 0.071812 0.000000 -6.775094 0.000000
-225.129639 91.583636 120.023828 -3.122107 -3.310797 0.065043 0.206332 0.376615 -0.281473 0.179245 0.298178 -0.175570 0.094797 0.323038 -0.068770 0.071421 0.326596 -0.019938 2.704509 -2.948128 -1.845460 1.022886 -3.139238 1.274718 9.167488 2.363048 -6.979162 -30.376043 8.006515 -37.892703 -17.294372 6.337460 6.459414 14.799622 -6.934035 -7.630446 -7.536387 4.205158 9.533141 32.071928 7.857360 31.103624 12.240784 -2.165298 -4.869006 -19.525910 3.392047 8.489196 6.811690 8.964141 0.408515 0.000000 1.352479 0.000000 9.053754 -1.404741 1.450303 0.000000 -8.280246 0.000000 -10.256164 6.976869 -1.188871 0.000000 1.861939 0.000000 -12.036228 -1.222252 0.062774 0.000000 -6.778193 0.000000
-225.133130 91.580573 120.025183 -3.115238 -3.303622 0.058221 0.207958 0.363521 -0.276153 0.179821 0.332392 -0.172357 0.089733 0.318851 -0.069022 0.067276 0.292369 -0.031333 2.694036 -2.946405 -1.844056 1.018709 -3.148059 1.265817 9.178719 2.379360 -6.960946 -30.352189 7.941005 -37.902250 -17.278561 6.373385 6.478133 14.790338 -6.942731 -7.684587 -7.546262 4.224820 9.515864 32.082309 7.807778 31.120702 12.234719 -2.181063 -4.859894 -19.534788 3.412979 8.463178 6.828792 8.966750 0.421752 0.000000 1.328110 0.000000 9.031299 -1.390189 1.456671 0.000000 -8.320333 0.000000 -10.234569 6.981579 -1.173662 0.000000 1.849752 0.000000 -12.074221 -1.225076 0.030301 0.000000 -6.774421 0.000000
-225.134277 91.579382 120.029504 -3.106633 -3.302129 0.055678 0.201837 0.383064 -0.270519 0.173922 0.302273 -0.173332 0.086992 0.322452 -0.077500 0.063671 0.320387 -0.031849 2.680357 -2.945018 -1.869429 1.007259 -3.203498 1.324768 9.216033 2.363711 -6.969629 -30.397793 7.975820 -37.876481 -17.325439 6.242445 6.461455 14.842897 -6.829566 -7.657786 -7.538522 4.207388 9.528577 32.099311 7.809677 31.102705 12.222718 -2.216279 -4.855539 -19.507749 3.437533 8.510916 6.820562 8.968937 0.422330 0.000000 1.325536 0.000000 9.035301 -1.406665 1.442057 0.000000 -8.262067 0.000000 -10.266124 6.979667 -1.176307 0.000000 1.855769 0.000000 -12.051096 -1.223035 0.049627 0.000000 -6.785725 0.000000
-225.136523 91.579626 120.032324 -3.105372 -3.299685 0.061599 0.212653 0.366865 -0.282117 0.184181 0.342881 -0.175268 0.078696 0.307577 -0.066172 0.055698 0.325230 -0.027723 2.674387 -2.969110 -1.893674 1.002521 -3.189451 1.346943 9.217400 2.345741 -6.988285 -30.397341 7.957041 -37.868423 -17.283414 6.359484 6.444102 14.777470 -6.954296 -7.628973 -7.543878 4.207721 9.524766 32.116200 7.841664 31.088411 12.246993 -2.235598 -4.880110 -19.524133 3.444318 8.565015 6.818865 8.970528 0.422311 0.000000 1.325354 0.000000 9.029706 -1.388685 1.390657 0.000000 -8.314343 0.000000 -10.266448 6.982566 -1.177381 0.000000 1.849089 0.000000 -12.056201 -1.241494 0.013518 0.000000 -6.718268 0.000000
-225.128784 91.578369 120.040430 -3.125735 -3.298965 0.050893 0.221296 0.357498 -0.247219 0.191751 0.355070 -0.165974 0.086788 0.310951 -0.079458 0.063313 0.322876 -0.038665 2.677989 -2.995430 -1.872403 1.010239 -3.172823 1.246835 9.206008 2.385570 -7.009383 -30.409818 7.938516 -37.843142 -17.274491 6.350590 6.477543 14.771855 -6.872853 -7.704076 -7.565945 4.227451 9.525726 32.141309 7.825992 31.058535 12.246964 -2.222566 -4.862102 -19.552259 3.261531 8.516042 6.834588 8.977834 0.426072 0.000000 1.319101 0.000000 9.043133 -1.396006 1.434596 0.000000 -8.328428 0.000000 -10.234047 6.981729 -1.172703 0.000000 1.858039 0.000000 -12.059791 -1.233420 0.042203 0.000000 -6.740573 0.000000
-225.134497 91.579828 120.040906 -3.106196 -3.299025 0.051661 0.222967 0.365866 -0.255136 0.193367 0.355762 -0.168166 0.082764 0.329451 -0.075075 0.058166 0.298697 -0.031723 2.631404 -2.947186 -1.918054 0.983474 -3.235351 1.324036 9.200913 2.375694 -7.016539 -30.392833 7.944360 -37.836952 -17.303021 6.460334 6.453894 14.795235 -6.933076 -7.708879 -7.567980 4.213377 9.524374 32.134480 7.844263 31.063651 12.247398 -2.232411 -4.874227 -19.522257 3.335254 8.582054 6.794822 8.974732 0.427814 0.000000 1.321827 0.000000 9.052605 -1.378807 1.378641 0.000000 -8.363162 0.000000 -10.284003 6.980275 -1.176235 0.000000 1.867149 0.000000 -12.028034 -1.256089 0.069430 0.000000 -6.698038 0.000000
-225.134985 91.581677 120.043347 -3.104966 -3.297403 0.052659 0.221365 0.386306 -0.276338 0.191018 0.333420 -0.159387 0.083369 0.315595 -0.049543 0.061886 0.323821 -0.037730 2.680995 -3.022105 -1.873632 1.013284 -3.116888 1.232296 9.206152 2.422276 -7.037773 -30.449321 7.943063 -37.812866 -17.313993 6.323190 6.473205 14.802847 -6.837964 -7.667139 -7.553373 4.226103 9.536089 32.139881 7.871352 31.023559 12.254834 -2.233066 -4.855272 -19.488154 3.243420 8.552760 6.806518 8.976984 0.429877 0.000000 1.308558 0.000000 9.040974 -1.347779 1.372842 0.000000 -8.389209 0.000000 -10.268071 6.986780 -1.176488 0.000000 1.849522 0.000000 -12.049566 -1.232670 0.060523 0.000000 -6.749682 0.000000
-225.135059 91.582068 120.051074 -3.093274 -3.292556 0.044606 0.204421 0.373055 -0.253179 0.173722 0.324608 -0.159321 0.098669 0.349600 -0.071756 0.072982 0.333188 -0.026737 2.648338 -3.012367 -1.938370 0.990166 -3.182196 1.325589 9.211530 2.392046 -7.042891 -30.452548 7.943600 -37.824998 -17.339451 6.303835 6.476423 14.788856 -6.776750 -7.687590 -7.569925 4.208035 9.529080 32.197389 7.920200 31.030660 12.289560 -2.290807 -4.901253 -19.575722 3.303525 8.583348 6.804071 8.981964 0.435653 0.000000 1.304833 0.000000 9.041654 -1.377378 1.399076 0.000000 -8.301642 0.000000 -10.298998 6.983203 -1.172186 0.000000 1.864391 0.000000 -12.023760 -1.243333 0.049678 0.000000 -6.767769 0.000000
-225.135352 91.580341 120.053223 -3.090425 -3.290214 0.046446 0.209158 0.359700 -0.255305 0.177945 0.352260 -0.158779 0.096182 0.347550 -0.068306 0.072598 0.326488 -0.039152 2.644215 -3.028464 -1.918275 0.990429 -3.163361 1.306512 9.216254 2.410186 -7.045748 -30.492808 7.961668 -37.801559 -17.349017 6.332761 6.477096 14.811092 -6.805400 -7.709492 -7.557719 4.223241 9.549643 32.185616 7.911817 30.993824 12.315939 -2.287996 -4.884391 -19.621970 3.345243 8.580813 6.826744 8.983592 0.434383 0.000000 1.300291 0.000000 9.016586 -1.411307 1.417037 0.000000 -8.215596 0.000000 -10.258948 6.990373 -1.170466 0.000000 1.851369 0.000000 -12.065855 -1.227937 0.100149 0.000000 -6.794706 0.000000
-225.141382 91.580310 120.055115 -3.087995 -3.287518 0.057633 0.228588 0.359917 -0.270287 0.197216 0.379107 -0.169070 0.089092 0.310438 -0.063820 0.063757 0.335944 -0.026834 2.644462 -3.029211 -1.931324 0.987476 -3.177950 1.346147 9.206105 2.449030 -7.066276 -30.554394 7.986628 -37.760963 -17.341088 6.279900 6.471406 14.722547 -6.826222 -7.758874 -7.587151 4.233674 9.543218 32.196138 7.865671 30.983848 12.279524 -2.261023 -4.874208 -19.570480 3.420224 8.599785 6.847814 8.979721 0.433791 0.000000 1.293693 0.000000 9.002535 -1.350899 1.375672 0.000000 -8.387568 0.000000 -10.312759 6.990231 -1.180375 0.000000 1.846849 0.000000 -12.020762 -1.248071 0.042266 0.000000 -6.710575 0.000000
-225.142676 91.575507 120.060315 -3.078910 -3.284462 0.046399 0.226534 0.384995 -0.261595 0.195116 0.336640 -0.166972 0.084857 0.323511 -0.070105 0.058941 0.319659 -0.030408 2.677029 -3.043191 -1.883162 1.007041 -3.110771 1.306586 9.234070 2.446698 -7.038231 -30.607926 8.027558 -37.793070 -17.367166 6.219928 6.486191 14.765559 -6.780467 -7.787111 -7.587763 4.261990 9.533728 32.230563 7.838049 30.989373 12.208494 -2.224927 -4.857695 -19.455474 3.427784 8.562997 6.812175 8.987547 0.444896 0.000000 1.273190 0.000000 9.021762 -1.337294 1.311944 0.000000 -8.446561 0.000000 -10.332285 6.990429 -1.170645 0.000000 1.852651 0.000000 -12.013558 -1.276449 0.037148 0.000000 -6.708133 0.000000
